<?xml version="1.0" encoding="UTF-8"?>
<!-- Created with EazyDraw for Mac ( http://www.eazydraw.com/ ) -->

<svg
    version="1.1"
    xmlns:dc="http://purl.org/dc/elements/1.1/"
    xmlns:cc="http://creativecommons.org/ns#"
    xmlns:rdf="http://www.w3.org/1999/02/22-rdf-syntax-ns#"
    xmlns:svg="http://www.w3.org/2000/svg"
    xmlns:xlink="http://www.w3.org/1999/xlink"
    xmlns="http://www.w3.org/2000/svg"
    width="22.0007160301"
    height="24"
    viewBox="0, 0, 22.0007160301, 24"
    preserveAspectRatio="none"
    id="svg2">
   <defs
       id="defs_D9EBB96B"/>
   <metadata
       id="metadata7">
      <rdf:RDF>
         <cc:Work
             rdf:about="">
            <dc:format>image/svg+xml</dc:format>
            <dc:type rdf:resource="http://purl.org/dc/dcmitype/StillImage"/>
            <dc:title></dc:title>
         </cc:Work>
      </rdf:RDF>
   </metadata>
   <g
       id="layer_Paper"
       style="fill:#000000;fill-opacity:1;stroke:#000000;stroke-opacity:1;fill-rule:nonzero;stroke-linecap:square;stroke-linejoin:miter;stroke-width:1;stroke-miterlimit:10">
      <g
          id="9B6A7C5B">
         <path
             style="fill:#4E4E4E;stroke:none"
             id="2D6A7C5B"
             d="M11.0002485582,12.0001368211 C12.6569326088,12.0001368211 14.0709508379,11.4139954256 15.2426863445,10.2422051905 C16.414531308,9.070414955453 17.0005632466,7.656396726328 17.0005632466,5.999931589473 C17.0005632466,4.343740094726 16.414531308,2.929667137179 15.2426863445,1.75760325999
C14.0705677389,0.58586775333 12.6564947814,0 11.0002485582,0 C9.344002335037,0 7.929710463846,0.58586775333 6.757974957186,1.75760325999 C5.58602053684,2.929667137179 5.000043326667,4.343685366304 5.000043326667,5.999931589473
C5.000043326667,7.656396726328 5.58602053684,9.070414955453 6.757974957186,10.2422051905 C7.930038834375,11.4139954256 9.343947606637,12.0001368211 11.0002485582,12.0001368211 z"/>
         <path
             style="fill:#4E4E4E;stroke:none"
             id="8E6A7C5B"
             d="M21.9455497812,18.3359914624 C21.9089911955,17.8101060591 21.8359834811,17.2422439565 21.72680028,16.6327882535 C21.6173981652,16.0233325504 21.4792089006,15.458480511 21.3125061284,14.9374112088 C21.1458033562,14.4167250056 20.9217999265,13.9088452531 20.6405505679,13.4139908649
C20.3594106661,12.9191912051 20.0365129786,12.4973992598 19.6716933201,12.1482866584 C19.3068736617,11.7992835137 18.8616579519,11.5208253046 18.3359914623,11.312528932 C17.8096682317,11.1042872877 17.2288902216,10.9999749161 16.5934385183,10.9999749161
C16.4997981889,10.9999749161 16.2809939593,11.1119492668 15.9371900148,11.3359526964 C15.5937144407,11.559956126 15.2056352031,11.8100102844 14.7733354008,12.0861698998 C14.3410903269,12.3618369595 13.7782632391,12.6120553031 13.0858392489,12.8356756338
C12.3930868882,13.0596790634 11.6978717485,13.1717081424 10.999701274,13.1717081424 C10.3018044416,13.1717081424 9.606534573537,13.0596790634 8.91389166965,12.8356756338 C8.221303494181,12.6120553031 7.658640591614,12.3618369595 7.22634078932,12.0861698998
C6.794095715448,11.8100102844 6.406125934658,11.5600108545 6.062431446951,11.3359526964 C5.718572773978,11.1119492668 5.499932729648,10.9999749161 5.406182943431,10.9999749161 C4.770785968545,10.9999749161 4.190007958424,11.1042872877 3.664013098335,11.312528932
C3.137908781403,11.5208253046 2.692638343188,11.7995024274 2.327982870004,12.1482866584 C1.963436853663,12.4973992598 1.640484437745,12.9191912051 1.359344535937,13.4139908649 C1.078204634129,13.9088452531 0.854255932903,14.4169439193 0.68755316068,14.9374112088
C0.520905116879,15.458480511 0.382825309158,16.0233325504 0.273477922782,16.6327882535 C0.164021079563,17.2422439565 0.09112282198,17.8097229602 0.054618964766,18.3359914624 C0.018169835974,18.8622599646 0,19.4013349174 0,19.9534352346
C0,21.2032134705 0.380307801764,22.1904594679 1.140649763185,22.9144617574 C1.901155909871,23.6381904047 2.911661486469,24 4.172057036136,24 L17.8286042656,24 C19.0888903584,24 20.0992864782,23.6381904047 20.8599020817,22.9144617574
C21.6206818705,22.1904594679 22.0007160301,21.2033776558 22.0007160301,19.9534352346 C22.0006065733,19.4013349174 21.9824367373,18.8622599646 21.9455497812,18.3359914624 z"/>
      </g>
   </g>
</svg>
