<?xml version="1.0" encoding="UTF-8"?>
<!-- Created with EazyDraw for Mac ( http://www.eazydraw.com/ ) -->

<svg
    version="1.1"
    xmlns:dc="http://purl.org/dc/elements/1.1/"
    xmlns:cc="http://creativecommons.org/ns#"
    xmlns:rdf="http://www.w3.org/1999/02/22-rdf-syntax-ns#"
    xmlns:svg="http://www.w3.org/2000/svg"
    xmlns:xlink="http://www.w3.org/1999/xlink"
    xmlns="http://www.w3.org/2000/svg"
    width="19.6360979596"
    height="24"
    viewBox="0, 0, 19.6360979596, 24"
    preserveAspectRatio="none"
    id="svg2">
   <defs
       id="defs_7526668B"/>
   <metadata
       id="metadata7">
      <rdf:RDF>
         <cc:Work
             rdf:about="">
            <dc:format>image/svg+xml</dc:format>
            <dc:type rdf:resource="http://purl.org/dc/dcmitype/StillImage"/>
            <dc:title></dc:title>
         </cc:Work>
      </rdf:RDF>
   </metadata>
   <g
       id="layer_Paper"
       style="fill:#000000;fill-opacity:1;stroke:#000000;stroke-opacity:1;fill-rule:nonzero;stroke-linecap:square;stroke-linejoin:miter;stroke-width:1;stroke-miterlimit:10">
      <path
          style="fill:#3D3D3D;stroke:none"
          id="29FC708B"
          d="M19.1584236737,11.3863850069 C18.8401534336,11.0681744685 18.4539425569,10.9091886029 17.9991940258,10.9091886029 L17.4540569853,10.9091886029 L17.4540569853,7.636276797397 C17.4540569853,5.545400723387 16.7042622102,3.750108209494 15.2041950457,2.25010074677
C13.7042472848,0.750033582257 11.9091338763,0 9.817959293319,0 C7.726844412161,0 5.931372792899,0.750033582257 4.431544435544,2.25004104498 C2.931477271031,3.750108209494 2.181682495932,5.545341021597 2.181682495932,7.636276797397
L2.181682495932,10.9091886029 L1.636306648291,10.9091886029 C1.181916327942,10.9091886029 0.795466644112,11.0681744685 0.477256105751,11.3863850069 C0.159045567391,11.7043567381 0,12.0908064219 0,12.5456146548
L0,22.3636933517 C0,22.8180836721 0.15910526918,23.2046527595 0.477256105751,23.5229229996 C0.795466644112,23.840835029 1.181916327942,24 1.636306648291,24 L17.9996119383,24 C18.4543604694,24 18.8405116443,23.8410141344 19.1588415863,23.5229229996
C19.4767536157,23.2046527595 19.636097692,22.8180836721 19.636097692,22.3636933517 L19.636097692,12.5454355494 C19.6363364992,12.0909855273 19.4767536157,11.7045955453 19.1584236737,11.3863850069 z M14.1815033905,10.9091886029
L5.454415196095,10.9091886029 L5.454415196095,7.636276797397 C5.454415196095,6.431793193001 5.880626271772,5.403310464231 6.732869317757,4.551186821825 C7.585231767322,3.69894377584 8.613535390719,3.272911805531 9.818138398719,3.272911805531
C11.0228608102,3.272911805531 12.0509256265,3.69888407405 12.9033477778,4.551186821825 C13.7553520167,5.403250762442 14.1815033905,6.431793193001 14.1815033905,7.636276797397 L14.1815033905,10.9091886029
z"/>
   </g>
</svg>
